<mxfile host="app.diagrams.net" modified="2024-04-23T08:58:29.798Z" agent="Mozilla/5.0 (Windows NT 10.0; Win64; x64) AppleWebKit/537.36 (KHTML, like Gecko) Chrome/122.0.0.0 Whale/3.25.232.19 Safari/537.36" etag="fbdC4d06MejbyD79VKfC" version="24.2.7" type="github">
  <diagram name="페이지-1" id="z22yrbxm85gxxEzjDTkI">
    <mxGraphModel dx="1004" dy="541" grid="1" gridSize="10" guides="1" tooltips="1" connect="1" arrows="1" fold="1" page="1" pageScale="1" pageWidth="827" pageHeight="1169" math="0" shadow="0">
      <root>
        <mxCell id="0" />
        <mxCell id="1" parent="0" />
        <mxCell id="3u5hoXux-Kwktmr65ePr-1" value="&lt;b&gt;&lt;font style=&quot;font-size: 14px;&quot;&gt;App&lt;/font&gt;&lt;/b&gt;" style="ellipse;whiteSpace=wrap;html=1;fillColor=#f8cecc;strokeColor=#b85450;" vertex="1" parent="1">
          <mxGeometry x="360" y="220" width="120" height="80" as="geometry" />
        </mxCell>
        <mxCell id="3u5hoXux-Kwktmr65ePr-2" value="" style="endArrow=classic;html=1;rounded=0;exitX=0.5;exitY=0;exitDx=0;exitDy=0;entryX=0.5;entryY=1;entryDx=0;entryDy=0;" edge="1" parent="1" source="3u5hoXux-Kwktmr65ePr-1" target="3u5hoXux-Kwktmr65ePr-8">
          <mxGeometry width="50" height="50" relative="1" as="geometry">
            <mxPoint x="390" y="310" as="sourcePoint" />
            <mxPoint x="514.8150336437247" y="156.30560085125398" as="targetPoint" />
          </mxGeometry>
        </mxCell>
        <mxCell id="3u5hoXux-Kwktmr65ePr-4" value="" style="endArrow=classic;html=1;rounded=0;exitX=0.5;exitY=0;exitDx=0;exitDy=0;" edge="1" parent="1" source="3u5hoXux-Kwktmr65ePr-1" target="3u5hoXux-Kwktmr65ePr-9">
          <mxGeometry width="50" height="50" relative="1" as="geometry">
            <mxPoint x="390" y="310" as="sourcePoint" />
            <mxPoint x="332.39867167579496" y="157.10824710467523" as="targetPoint" />
          </mxGeometry>
        </mxCell>
        <mxCell id="3u5hoXux-Kwktmr65ePr-6" value="&lt;font style=&quot;font-size: 14px;&quot;&gt;&lt;b&gt;Profile&lt;/b&gt;&lt;/font&gt;" style="text;html=1;align=center;verticalAlign=middle;whiteSpace=wrap;rounded=0;" vertex="1" parent="1">
          <mxGeometry x="390" y="180" width="60" height="30" as="geometry" />
        </mxCell>
        <mxCell id="3u5hoXux-Kwktmr65ePr-8" value="&lt;font style=&quot;font-size: 14px;&quot;&gt;&lt;b&gt;설정파일&lt;/b&gt;&lt;/font&gt;&lt;div style=&quot;font-size: 14px;&quot;&gt;&lt;font style=&quot;font-size: 14px;&quot;&gt;&lt;b&gt;local-dev&lt;/b&gt;&lt;/font&gt;&lt;/div&gt;" style="rounded=0;whiteSpace=wrap;html=1;fillColor=#fff2cc;strokeColor=#d6b656;" vertex="1" parent="1">
          <mxGeometry x="479.99503364372475" y="99.99560085125398" width="120" height="60" as="geometry" />
        </mxCell>
        <mxCell id="3u5hoXux-Kwktmr65ePr-9" value="&lt;font style=&quot;font-size: 14px;&quot;&gt;&lt;b&gt;설정파일&lt;/b&gt;&lt;/font&gt;&lt;div style=&quot;font-size: 14px;&quot;&gt;&lt;font style=&quot;font-size: 14px;&quot;&gt;&lt;b&gt;local&lt;/b&gt;&lt;/font&gt;&lt;/div&gt;" style="rounded=0;whiteSpace=wrap;html=1;fillColor=#d5e8d4;strokeColor=#82b366;" vertex="1" parent="1">
          <mxGeometry x="199.99867167579495" y="99.99824710467523" width="120" height="60" as="geometry" />
        </mxCell>
      </root>
    </mxGraphModel>
  </diagram>
</mxfile>
